<svg xmlns="http://www.w3.org/2000/svg" xmlns:xlink="http://www.w3.org/1999/xlink" viewBox="0 0 678.56 167.49"><defs><style>.cls-1{fill:#ff3f68;}.cls-2{fill:#fa255e;}.cls-3{fill:url(#linear-gradient);}.cls-4{fill:url(#linear-gradient-2);}.cls-5{fill:url(#linear-gradient-3);}.cls-6{fill:url(#linear-gradient-4);}.cls-7{fill:url(#linear-gradient-5);}.cls-8{fill:url(#linear-gradient-6);}.cls-9{fill:url(#linear-gradient-7);}.cls-10{fill:url(#linear-gradient-8);}.cls-11{fill:#feb800;}.cls-12{fill:url(#linear-gradient-9);}.cls-13{fill:url(#linear-gradient-10);}.cls-14{fill:#afb3dd;}.cls-15{fill:url(#linear-gradient-11);}.cls-16{fill:url(#linear-gradient-12);}.cls-17{fill:url(#linear-gradient-13);}.cls-18{fill:url(#linear-gradient-14);}.cls-19{fill:url(#linear-gradient-15);}.cls-20{fill:url(#linear-gradient-16);}.cls-21{fill:url(#linear-gradient-17);}.cls-22{fill:url(#linear-gradient-18);}.cls-23{fill:url(#linear-gradient-19);}.cls-24{fill:url(#linear-gradient-20);}.cls-25{fill:url(#linear-gradient-21);}.cls-26{fill:url(#linear-gradient-22);}.cls-27{fill:url(#linear-gradient-23);}.cls-28{fill:url(#linear-gradient-24);}.cls-29{fill:url(#linear-gradient-25);}.cls-30{fill:url(#linear-gradient-26);}.cls-31{fill:url(#linear-gradient-27);}.cls-32{fill:url(#linear-gradient-28);}.cls-33{fill:url(#linear-gradient-29);}.cls-34{fill:url(#linear-gradient-30);}.cls-35{fill:url(#linear-gradient-31);}.cls-36{fill:url(#linear-gradient-32);}.cls-37{fill:url(#linear-gradient-33);}.cls-38{fill:url(#linear-gradient-34);}.cls-39{fill:url(#linear-gradient-35);}.cls-40{fill:url(#linear-gradient-36);}.cls-41{fill:url(#linear-gradient-37);}.cls-42{fill:url(#linear-gradient-38);}.cls-43{fill:url(#linear-gradient-39);}.cls-44{fill:url(#linear-gradient-40);}.cls-45{fill:url(#linear-gradient-41);}.cls-46{fill:url(#linear-gradient-42);}.cls-47{fill:url(#linear-gradient-43);}.cls-48{fill:url(#linear-gradient-44);}.cls-49{fill:url(#linear-gradient-45);}.cls-50{fill:url(#linear-gradient-46);}.cls-51{fill:url(#linear-gradient-47);}.cls-52{fill:url(#linear-gradient-48);}</style><linearGradient id="linear-gradient" x1="179.19" y1="180.89" x2="191.01" y2="180.89" gradientTransform="translate(-50.04 83.83) rotate(-21.39)" gradientUnits="userSpaceOnUse"><stop offset="0" stop-color="#9096bf"/><stop offset="0.52" stop-color="#c7ccf2"/><stop offset="1" stop-color="#9096bf"/></linearGradient><linearGradient id="linear-gradient-2" x1="184.56" y1="184.73" x2="192.04" y2="184.73" gradientUnits="userSpaceOnUse"><stop offset="0" stop-color="#c7ccf2"/><stop offset="1" stop-color="#9096bf"/></linearGradient><linearGradient id="linear-gradient-3" x1="306.84" y1="222.49" x2="316.64" y2="222.49" xlink:href="#linear-gradient-2"/><linearGradient id="linear-gradient-4" x1="309.85" y1="230.18" x2="318.52" y2="230.18" xlink:href="#linear-gradient-2"/><linearGradient id="linear-gradient-5" x1="208.05" y1="249.29" x2="255.68" y2="102.35" gradientTransform="translate(-28.34 62.96) rotate(-14.34)" gradientUnits="userSpaceOnUse"><stop offset="0" stop-color="#9096bf"/><stop offset="1" stop-color="#c7ccf2"/></linearGradient><linearGradient id="linear-gradient-6" x1="214.56" y1="233.13" x2="232.57" y2="291.8" gradientTransform="translate(-28.34 62.96) rotate(-14.34)" gradientUnits="userSpaceOnUse"><stop offset="0" stop-color="#f16900"/><stop offset="1" stop-color="#fbc335"/></linearGradient><linearGradient id="linear-gradient-7" x1="289.51" y1="147.42" x2="336.43" y2="100.8" gradientTransform="translate(-171.3 -77.8) rotate(-7.16)" gradientUnits="userSpaceOnUse"><stop offset="0" stop-color="#c7ccf2"/><stop offset="0.39" stop-color="#afb3dd"/><stop offset="1" stop-color="#c2c7ee"/><stop offset="1" stop-color="#9096bf"/></linearGradient><linearGradient id="linear-gradient-8" x1="295.1" y1="148.8" x2="338.66" y2="105.52" gradientTransform="translate(-171.3 -77.8) rotate(-7.16)" xlink:href="#linear-gradient-5"/><linearGradient id="linear-gradient-9" x1="644.88" y1="274.75" x2="663.47" y2="274.75" gradientTransform="matrix(-0.43, 0.9, 0.9, 0.43, 299.01, -509.88)" xlink:href="#linear-gradient-6"/><linearGradient id="linear-gradient-10" x1="334.88" y1="281.05" x2="338.16" y2="281.05" gradientTransform="translate(606.32 -161.89) rotate(90.01)" xlink:href="#linear-gradient"/><linearGradient id="linear-gradient-11" x1="334.62" y1="254.19" x2="338.43" y2="254.19" gradientTransform="matrix(0.64, 0.77, -0.77, 0.64, 176.15, -377.57)" gradientUnits="userSpaceOnUse"><stop offset="0" stop-color="#c7ccf2"/><stop offset="0.39" stop-color="#afb3dd"/><stop offset="1" stop-color="#8188aa"/></linearGradient><linearGradient id="linear-gradient-12" x1="319.03" y1="469.22" x2="332.65" y2="469.22" gradientTransform="matrix(0.37, -0.67, 0.88, 0.48, -348.66, 216.77)" xlink:href="#linear-gradient"/><linearGradient id="linear-gradient-13" x1="315.37" y1="451.58" x2="317.67" y2="451.58" gradientTransform="translate(-148.75 -236.02) rotate(0.03)" xlink:href="#linear-gradient"/><linearGradient id="linear-gradient-14" x1="315.19" y1="432.77" x2="317.85" y2="432.77" gradientTransform="translate(-528.9 160.52) rotate(-61.06)" xlink:href="#linear-gradient-11"/><linearGradient id="linear-gradient-15" x1="200.65" y1="267.82" x2="221.16" y2="267.82" xlink:href="#linear-gradient-2"/><linearGradient id="linear-gradient-16" x1="201.4" y1="267.82" x2="220.41" y2="267.82" gradientTransform="matrix(1, 0, 0, 1, 0, 0)" xlink:href="#linear-gradient-7"/><linearGradient id="linear-gradient-17" x1="288.48" y1="271.89" x2="288.7" y2="271.89" gradientTransform="matrix(1, 0, 0, 1, 0, 0)" xlink:href="#linear-gradient-7"/><linearGradient id="linear-gradient-18" x1="273.68" y1="271.89" x2="273.9" y2="271.89" gradientTransform="matrix(1, 0, 0, 1, 0, 0)" xlink:href="#linear-gradient-7"/><linearGradient id="linear-gradient-19" x1="280.87" y1="271.89" x2="281.08" y2="271.89" gradientTransform="matrix(1, 0, 0, 1, 0, 0)" xlink:href="#linear-gradient-7"/><linearGradient id="linear-gradient-20" x1="295.23" y1="271.89" x2="295.45" y2="271.89" gradientTransform="matrix(1, 0, 0, 1, 0, 0)" xlink:href="#linear-gradient-7"/><linearGradient id="linear-gradient-21" x1="301.98" y1="271.89" x2="302.19" y2="271.89" gradientTransform="matrix(1, 0, 0, 1, 0, 0)" xlink:href="#linear-gradient-7"/><linearGradient id="linear-gradient-22" x1="306.98" y1="273.63" x2="307.2" y2="273.63" gradientTransform="matrix(1, 0, 0, 1, 0, 0)" xlink:href="#linear-gradient-7"/><linearGradient id="linear-gradient-23" x1="305.68" y1="273.63" x2="305.89" y2="273.63" gradientTransform="matrix(1, 0, 0, 1, 0, 0)" xlink:href="#linear-gradient-7"/><linearGradient id="linear-gradient-24" x1="304.37" y1="273.63" x2="304.59" y2="273.63" gradientTransform="matrix(1, 0, 0, 1, 0, 0)" xlink:href="#linear-gradient-7"/><linearGradient id="linear-gradient-25" x1="303.17" y1="273.63" x2="303.39" y2="273.63" gradientTransform="matrix(1, 0, 0, 1, 0, 0)" xlink:href="#linear-gradient-7"/><linearGradient id="linear-gradient-26" x1="296.61" y1="273.63" x2="296.83" y2="273.63" gradientTransform="matrix(1, 0, 0, 1, 0, 0)" xlink:href="#linear-gradient-7"/><linearGradient id="linear-gradient-27" x1="295.23" y1="273.63" x2="295.45" y2="273.63" gradientTransform="matrix(1, 0, 0, 1, 0, 0)" xlink:href="#linear-gradient-7"/><linearGradient id="linear-gradient-28" x1="293.71" y1="273.63" x2="293.92" y2="273.63" gradientTransform="matrix(1, 0, 0, 1, 0, 0)" xlink:href="#linear-gradient-7"/><linearGradient id="linear-gradient-29" x1="292.4" y1="273.63" x2="292.62" y2="273.63" gradientTransform="matrix(1, 0, 0, 1, 0, 0)" xlink:href="#linear-gradient-7"/><linearGradient id="linear-gradient-30" x1="291.09" y1="273.63" x2="291.31" y2="273.63" gradientTransform="matrix(1, 0, 0, 1, 0, 0)" xlink:href="#linear-gradient-7"/><linearGradient id="linear-gradient-31" x1="289.9" y1="273.63" x2="290.11" y2="273.63" gradientTransform="matrix(1, 0, 0, 1, 0, 0)" xlink:href="#linear-gradient-7"/><linearGradient id="linear-gradient-32" x1="287.07" y1="273.63" x2="287.29" y2="273.63" gradientTransform="matrix(1, 0, 0, 1, 0, 0)" xlink:href="#linear-gradient-7"/><linearGradient id="linear-gradient-33" x1="285.65" y1="273.63" x2="285.87" y2="273.63" gradientTransform="matrix(1, 0, 0, 1, 0, 0)" xlink:href="#linear-gradient-7"/><linearGradient id="linear-gradient-34" x1="282.61" y1="273.63" x2="282.83" y2="273.63" gradientTransform="matrix(1, 0, 0, 1, 0, 0)" xlink:href="#linear-gradient-7"/><linearGradient id="linear-gradient-35" x1="279.67" y1="273.63" x2="279.89" y2="273.63" gradientTransform="matrix(1, 0, 0, 1, 0, 0)" xlink:href="#linear-gradient-7"/><linearGradient id="linear-gradient-36" x1="276.62" y1="273.63" x2="276.84" y2="273.63" gradientTransform="matrix(1, 0, 0, 1, 0, 0)" xlink:href="#linear-gradient-7"/><linearGradient id="linear-gradient-37" x1="275.21" y1="273.63" x2="275.42" y2="273.63" gradientTransform="matrix(1, 0, 0, 1, 0, 0)" xlink:href="#linear-gradient-7"/><linearGradient id="linear-gradient-38" x1="272.27" y1="273.63" x2="272.49" y2="273.63" gradientTransform="matrix(1, 0, 0, 1, 0, 0)" xlink:href="#linear-gradient-7"/><linearGradient id="linear-gradient-39" x1="270.96" y1="273.63" x2="271.18" y2="273.63" gradientTransform="matrix(1, 0, 0, 1, 0, 0)" xlink:href="#linear-gradient-7"/><linearGradient id="linear-gradient-40" x1="269.87" y1="273.63" x2="270.09" y2="273.63" gradientTransform="matrix(1, 0, 0, 1, 0, 0)" xlink:href="#linear-gradient-7"/><linearGradient id="linear-gradient-41" x1="277.93" y1="273.63" x2="278.15" y2="273.63" gradientTransform="matrix(1, 0, 0, 1, 0, 0)" xlink:href="#linear-gradient-7"/><linearGradient id="linear-gradient-42" x1="284.32" y1="273.63" x2="284.53" y2="273.63" gradientTransform="matrix(1, 0, 0, 1, 0, 0)" xlink:href="#linear-gradient-7"/><linearGradient id="linear-gradient-43" x1="300.56" y1="273.63" x2="300.78" y2="273.63" gradientTransform="matrix(1, 0, 0, 1, 0, 0)" xlink:href="#linear-gradient-7"/><linearGradient id="linear-gradient-44" x1="299.36" y1="273.63" x2="299.58" y2="273.63" gradientTransform="matrix(1, 0, 0, 1, 0, 0)" xlink:href="#linear-gradient-7"/><linearGradient id="linear-gradient-45" x1="297.84" y1="273.63" x2="298.06" y2="273.63" gradientTransform="matrix(1, 0, 0, 1, 0, 0)" xlink:href="#linear-gradient-7"/><linearGradient id="linear-gradient-46" x1="233.27" y1="229.34" x2="260.51" y2="229.34" gradientTransform="matrix(1, 0, 0, 1, 0, 0)" xlink:href="#linear-gradient"/><linearGradient id="linear-gradient-47" x1="233.83" y1="229.34" x2="259.94" y2="229.34" gradientTransform="matrix(1, 0, 0, 1, 0, 0)" xlink:href="#linear-gradient-7"/><linearGradient id="linear-gradient-48" x1="251.35" y1="222.65" x2="242.33" y2="236.17" gradientTransform="matrix(1, 0, 0, 1, 0, 0)" xlink:href="#linear-gradient-5"/></defs><g id="OBJECTS"><path class="cls-1" d="M187.47,187.91l-1.69,2.17L190,198a1,1,0,0,1,.12.23l2,3.81,3.66-2.62Z" transform="translate(-148.1 -113.7)"/><path class="cls-1" d="M193.41,181.77l-1.61,1.62,8.13,5.34a1,1,0,0,1,.41.27l3.31,2.16,2.46-3.76Z" transform="translate(-148.1 -113.7)"/><path class="cls-2" d="M234.34,236c-9-5.1-17.06-12.81-23.94-20.12-5.14-5.67-11.24-13.45-15.68-19.46a1.69,1.69,0,0,1-.33,0,1.27,1.27,0,0,1-1-.46l-.1-.1-3.1,2.6a1.45,1.45,0,0,1,0,.36V199s0,.09,0,.13a1.27,1.27,0,0,1-.37.81c12.41,15.95,29.44,36.09,45.73,42.95a2,2,0,0,0,2.23-.71C238,240.26,237.1,238,234.34,236Z" transform="translate(-148.1 -113.7)"/><path class="cls-2" d="M248.36,229.47c-7.53-15.95-27.32-32.18-43.72-43.9a1.23,1.23,0,0,1-1.07.54,1.39,1.39,0,0,1-.63-.15l-2.77,2.89a1.5,1.5,0,0,1,.36,2c6.16,4.16,14.06,9.85,19.86,14.67,7.6,6.58,15.64,14.29,21.11,23.08,2.06,2.68,4.38,3.48,6.24,3.15A2,2,0,0,0,248.36,229.47Z" transform="translate(-148.1 -113.7)"/><path class="cls-2" d="M192.42,180.44c-15.54-20.2-33.85-28.51-33.85-28.51L173.9,169c2.95-1.95,6.64,2.07,4.26,4.76l8.09,9-9.33-7.7c-2.64,2.59-7.12-1-4.94-4.08l-17.67-14.61s9,18,29.86,32.67Z" transform="translate(-148.1 -113.7)"/><path class="cls-3" d="M192.39,180.47a5.91,5.91,0,1,1-8.36.17A5.9,5.9,0,0,1,192.39,180.47Z" transform="translate(-148.1 -113.7)"/><path class="cls-4" d="M190.89,182a3.74,3.74,0,1,1-5.29.12A3.74,3.74,0,0,1,190.89,182Z" transform="translate(-148.1 -113.7)"/><path class="cls-5" d="M316.64,222.59l-.78-1.65-6,.1h-.17l-2.88.05.47,3Z" transform="translate(-148.1 -113.7)"/><path class="cls-6" d="M318.52,228l-.49-1.46-5.62,3.24a.81.81,0,0,1-.28.17l-2.28,1.31,1.5,2.6Z" transform="translate(-148.1 -113.7)"/><path class="cls-2" d="M273.91,236c5.74-3.83,12.75-6.31,19.17-8.21,4.91-1.36,11.38-2.65,16.3-3.49a.87.87,0,0,1,.66-.68l.09,0-.62-2.63a1,1,0,0,1-.22-.09l0,0-.07,0a.92.92,0,0,1-.38-.47c-13.22,2.6-30.32,6.69-39.31,14.33a1.34,1.34,0,0,0-.24,1.53C270.29,237,271.92,237.1,273.91,236Z" transform="translate(-148.1 -113.7)"/><path class="cls-2" d="M273.61,246.36c11.76.31,27.37-6.6,39.27-12.84a.84.84,0,0,1,0-.8.91.91,0,0,1,.28-.33l-.89-2.52a1,1,0,0,1-1.28-.38c-4.33,2.42-10.09,5.42-14.71,7.42-6.19,2.55-13.2,5-20.07,5.64-2.22.42-3.39,1.56-3.76,2.77A1.34,1.34,0,0,0,273.61,246.36Z" transform="translate(-148.1 -113.7)"/><path class="cls-2" d="M319.61,227.78a66.62,66.62,0,0,0,27.13-11.59l-14.77,4c.28,2.34-3.22,3.33-4.11,1.11l-7.79,2.11,7.39-3.24c-.75-2.36,2.74-3.94,3.91-1.72l14-6.14a66.72,66.72,0,0,0-28.42,8Z" transform="translate(-148.1 -113.7)"/><path class="cls-1" d="M319.6,227.76a3.95,3.95,0,1,1,2.4-5A4,4,0,0,1,319.6,227.76Z" transform="translate(-148.1 -113.7)"/><path class="cls-2" d="M319.11,226.39a2.49,2.49,0,1,1,1.53-3.18A2.49,2.49,0,0,1,319.11,226.39Z" transform="translate(-148.1 -113.7)"/><path class="cls-7" d="M260.49,129.18a.19.19,0,0,1,0-.07l-2.93-9.84a.88.88,0,0,0,0-.16,1.66,1.66,0,0,0-.12-.31v-.06h0a1.07,1.07,0,0,0-1.14-.62L239,122.26l.58,2.42,16-3.83,2.36,8-34.82,19.77a1.29,1.29,0,0,0-.56,1.58s0,.09,0,.14l27.91,109.14a1.58,1.58,0,0,0,3.06-.78L225.77,150l34.12-19.38a1.3,1.3,0,0,0,.64-1v0s0,0,0,0a.88.88,0,0,0,0-.23h0s0-.09,0-.13Z" transform="translate(-148.1 -113.7)"/><path class="cls-1" d="M188.69,138.8a.94.94,0,0,0,1.16.68h0a1,1,0,0,0,.69-1.15l-1.2-4.68a1,1,0,0,0-1.16-.68h0a1,1,0,0,0-.68,1.16Z" transform="translate(-148.1 -113.7)"/><path class="cls-1" d="M251.21,122.92a1,1,0,0,0,1.15.69h0a1,1,0,0,0,.69-1.16l-1.19-4.67a1,1,0,0,0-1.16-.69h0a1,1,0,0,0-.69,1.16Z" transform="translate(-148.1 -113.7)"/><path class="cls-2" d="M252.17,242.37c-.38-1.46-1.54-2.43-2.6-2.16l-5,1.27c-1.06.27-1.62,1.68-1.25,3.15l7,35.2c.37,1.47,3.35,1.51,4.41,1.23l5-1.27c1.06-.27,3.54-2.17,3.17-3.64ZM257,279.7a2,2,0,1,1,1.42-2.39A2,2,0,0,1,257,279.7Z" transform="translate(-148.1 -113.7)"/><path class="cls-8" d="M259.11,268.63c.28,1.07-1.53,2.46-2.31,2.66l-3.63.92c-.77.2-2.95.18-3.22-.9l-5.09-25.72a1.81,1.81,0,0,1,.91-2.3l3.63-.93c.78-.2,1.63.51,1.91,1.58Z" transform="translate(-148.1 -113.7)"/><path class="cls-2" d="M251.56,124.32c.68,2.65-1.22,5.44-4.24,6.21l-49.7,12.71c-3,.77-6-.76-6.7-3.42l-1.79-7c-.68-2.66,1.22-5.44,4.24-6.22l49.7-12.71c3-.77,6,.76,6.71,3.42Z" transform="translate(-148.1 -113.7)"/><polygon class="cls-9" points="143.11 37.63 161.46 0.58 156.85 1.55 143.35 4.37 129.9 31.26 140.29 36.27 143.11 37.63"/><polygon class="cls-10" points="143.11 37.63 161.46 0.58 158.28 1.26 141.19 35.82 143.11 37.63"/><path class="cls-2" d="M268.2,198.21a1.31,1.31,0,0,0,1.74-.61l29.6-61.39a1.32,1.32,0,0,0-.61-1.75l-12.34-6a1.32,1.32,0,0,0-1.74.61l-29.6,61.4a1.31,1.31,0,0,0,.61,1.74Z" transform="translate(-148.1 -113.7)"/><path class="cls-2" d="M268.2,198.21a1.31,1.31,0,0,0,1.74-.61l29.6-61.39a1.32,1.32,0,0,0-.61-1.75l-1.79-.86L266,197.15Z" transform="translate(-148.1 -113.7)"/><path class="cls-11" d="M257.35,209.08a11.57,11.57,0,1,0-5.41-15.45A11.57,11.57,0,0,0,257.35,209.08Z" transform="translate(-148.1 -113.7)"/><path class="cls-12" d="M258.34,207A9.3,9.3,0,1,0,254,194.62,9.3,9.3,0,0,0,258.34,207Z" transform="translate(-148.1 -113.7)"/><path class="cls-1" d="M272.88,181.87a1.62,1.62,0,0,0,2.17-.76l20.05-41.58a1.63,1.63,0,0,0-.76-2.17l-6.57-3.16a1.62,1.62,0,0,0-2.16.75l-20.05,41.59a1.62,1.62,0,0,0,.76,2.16Z" transform="translate(-148.1 -113.7)"/><path class="cls-2" d="M274.78,178.37a1.3,1.3,0,0,0,1.74-.61l1.27-2.64a1.3,1.3,0,0,0-.6-1.74l-6.91-3.33a1.3,1.3,0,0,0-1.74.61l-1.27,2.64a1.29,1.29,0,0,0,.6,1.74Z" transform="translate(-148.1 -113.7)"/><path class="cls-2" d="M271.82,226.59a5.63,5.63,0,0,1-7.92-.7h0a5.63,5.63,0,0,1,.7-7.92l34.09-28.6a5.63,5.63,0,0,1,7.92.7h0a5.62,5.62,0,0,1-.69,7.92Z" transform="translate(-148.1 -113.7)"/><path class="cls-1" d="M276.61,220.35a3.93,3.93,0,0,1-5.53-.48h0a3.93,3.93,0,0,1,.49-5.53l23.78-19.94a3.92,3.92,0,0,1,5.52.49h0a3.93,3.93,0,0,1-.48,5.52Z" transform="translate(-148.1 -113.7)"/><path class="cls-2" d="M311.42,198.72c-1.58,1.33-5.66-.92-9.12-5s-4.95-8.53-3.38-9.86,5.67.93,9.13,5.05S313,197.39,311.42,198.72Z" transform="translate(-148.1 -113.7)"/><rect class="cls-13" x="299.9" y="172.97" width="50.58" height="3.28" transform="translate(-184.26 136.18) rotate(-40)"/><polygon class="cls-14" points="192.67 45.34 196.57 40.53 201.45 40.48 200.55 45.27 195.13 48.28 192.67 45.34"/><polygon class="cls-15" points="194.6 44.69 197 41.73 199.99 41.7 199.44 44.65 196.11 46.49 194.6 44.69"/><path class="cls-2" d="M214.64,237.36a3.92,3.92,0,0,1,1.54,5.35h0a3.94,3.94,0,0,1-5.35,1.54l-27.27-15.08a3.94,3.94,0,0,1-1.55-5.35h0a4,4,0,0,1,5.36-1.54Z" transform="translate(-148.1 -113.7)"/><path class="cls-1" d="M213.59,243a2.35,2.35,0,0,1-2-.14l-27.28-15.08a2.36,2.36,0,0,1-.92-3.21,2.37,2.37,0,0,1,3.2-.92l27.28,15.08a2.36,2.36,0,0,1,.92,3.21A2.46,2.46,0,0,1,213.59,243Z" transform="translate(-148.1 -113.7)"/><path class="cls-16" d="M185.78,220c1.27.7,1.16,3.32-.23,5.85s-3.57,4-4.84,3.31-1.16-3.32.24-5.85S184.51,219.29,185.78,220Z" transform="translate(-148.1 -113.7)"/><rect class="cls-17" x="166.44" y="198.01" width="2.3" height="35.43" transform="translate(-250.38 144.42) rotate(-61.09)"/><polygon class="cls-14" points="5.39 95.76 1.26 94.42 0 91.25 3.35 90.63 6.69 93.42 5.39 95.76"/><polygon class="cls-18" points="4.47 94.67 1.94 93.84 1.16 91.89 3.23 91.51 5.27 93.22 4.47 94.67"/><path class="cls-19" d="M210.9,257.57a10.25,10.25,0,1,0,10.26,10.25A10.25,10.25,0,0,0,210.9,257.57Zm0,16.59a6.34,6.34,0,1,1,6.34-6.34A6.33,6.33,0,0,1,210.9,274.16Z" transform="translate(-148.1 -113.7)"/><path class="cls-20" d="M210.9,258.32a9.5,9.5,0,1,0,9.51,9.5A9.5,9.5,0,0,0,210.9,258.32Zm0,15.37a5.87,5.87,0,1,1,5.88-5.87A5.87,5.87,0,0,1,210.9,273.69Z" transform="translate(-148.1 -113.7)"/><rect class="cls-2" x="111.51" y="143.17" width="49.62" height="18.61"/><rect class="cls-1" x="159.82" y="143.17" width="2.61" height="21.11"/><path class="cls-21" d="M288.7,275.37a.11.11,0,0,1-.11.11h0a.11.11,0,0,1-.11-.11v-7a.1.1,0,0,1,.11-.11h0a.1.1,0,0,1,.11.11Z" transform="translate(-148.1 -113.7)"/><path class="cls-22" d="M273.9,275.37a.11.11,0,0,1-.11.11h0a.11.11,0,0,1-.11-.11v-7a.1.1,0,0,1,.11-.11h0a.1.1,0,0,1,.11.11Z" transform="translate(-148.1 -113.7)"/><path class="cls-23" d="M281.08,275.37a.1.1,0,0,1-.11.11h0a.1.1,0,0,1-.1-.11v-7a.1.1,0,0,1,.1-.11h0a.1.1,0,0,1,.11.11Z" transform="translate(-148.1 -113.7)"/><path class="cls-24" d="M295.45,275.37a.11.11,0,0,1-.11.11h0a.11.11,0,0,1-.11-.11v-7a.1.1,0,0,1,.11-.11h0a.1.1,0,0,1,.11.11Z" transform="translate(-148.1 -113.7)"/><path class="cls-25" d="M302.19,275.37a.11.11,0,0,1-.1.11h0a.1.1,0,0,1-.11-.11v-7a.1.1,0,0,1,.11-.11h0a.1.1,0,0,1,.1.11Z" transform="translate(-148.1 -113.7)"/><path class="cls-26" d="M307.2,275.42s-.05.06-.11.06h0c-.06,0-.11,0-.11-.06v-3.59s0-.05.11-.05h0c.06,0,.11,0,.11.05Z" transform="translate(-148.1 -113.7)"/><path class="cls-27" d="M305.89,275.42s0,.06-.11.06h0c-.06,0-.1,0-.1-.06v-3.59s0-.05.1-.05h0c.07,0,.11,0,.11.05Z" transform="translate(-148.1 -113.7)"/><path class="cls-28" d="M304.59,275.42s0,.06-.11.06h0c-.06,0-.11,0-.11-.06v-3.59s.05-.05.11-.05h0c.06,0,.11,0,.11.05Z" transform="translate(-148.1 -113.7)"/><path class="cls-29" d="M303.39,275.42s-.05.06-.11.06h0c-.06,0-.11,0-.11-.06v-3.59s.05-.05.11-.05h0c.06,0,.11,0,.11.05Z" transform="translate(-148.1 -113.7)"/><path class="cls-30" d="M296.83,275.42s-.05.06-.11.06h0c-.06,0-.11,0-.11-.06v-3.59s.05-.05.11-.05h0c.06,0,.11,0,.11.05Z" transform="translate(-148.1 -113.7)"/><path class="cls-31" d="M295.45,275.42s-.05.06-.11.06h0c-.06,0-.11,0-.11-.06v-3.59s0-.05.11-.05h0c.06,0,.11,0,.11.05Z" transform="translate(-148.1 -113.7)"/><path class="cls-32" d="M293.92,275.42s-.05.06-.11.06h0c-.05,0-.1,0-.1-.06v-3.59s.05-.05.1-.05h0c.06,0,.11,0,.11.05Z" transform="translate(-148.1 -113.7)"/><path class="cls-33" d="M292.62,275.42s-.05.06-.11.06h0c-.06,0-.11,0-.11-.06v-3.59s.05-.05.11-.05h0c.06,0,.11,0,.11.05Z" transform="translate(-148.1 -113.7)"/><path class="cls-34" d="M291.31,275.42s-.05.06-.11.06h0c-.06,0-.11,0-.11-.06v-3.59s.05-.05.11-.05h0c.06,0,.11,0,.11.05Z" transform="translate(-148.1 -113.7)"/><path class="cls-35" d="M290.11,275.42s0,.06-.1.06h0c-.06,0-.11,0-.11-.06v-3.59s.05-.05.11-.05h0c.06,0,.1,0,.1.05Z" transform="translate(-148.1 -113.7)"/><path class="cls-36" d="M287.29,275.42s-.05.06-.11.06h0c-.06,0-.11,0-.11-.06v-3.59s.05-.05.11-.05h0c.06,0,.11,0,.11.05Z" transform="translate(-148.1 -113.7)"/><path class="cls-37" d="M285.87,275.42s-.05.06-.11.06h0c-.06,0-.11,0-.11-.06v-3.59s.05-.05.11-.05h0c.06,0,.11,0,.11.05Z" transform="translate(-148.1 -113.7)"/><path class="cls-38" d="M282.83,275.42s-.06.06-.11.06h0c-.06,0-.11,0-.11-.06v-3.59s.05-.05.11-.05h0s.11,0,.11.05Z" transform="translate(-148.1 -113.7)"/><path class="cls-39" d="M279.89,275.42s-.05.06-.11.06h0c-.06,0-.11,0-.11-.06v-3.59s.05-.05.11-.05h0c.06,0,.11,0,.11.05Z" transform="translate(-148.1 -113.7)"/><path class="cls-40" d="M276.84,275.42s0,.06-.11.06h0c-.06,0-.11,0-.11-.06v-3.59s.05-.05.11-.05h0c.06,0,.11,0,.11.05Z" transform="translate(-148.1 -113.7)"/><path class="cls-41" d="M275.42,275.42s0,.06-.1.06h0c-.06,0-.11,0-.11-.06v-3.59s.05-.05.11-.05h0c.06,0,.1,0,.1.05Z" transform="translate(-148.1 -113.7)"/><path class="cls-42" d="M272.49,275.42s-.05.06-.11.06h0c-.06,0-.11,0-.11-.06v-3.59s.05-.05.11-.05h0c.06,0,.11,0,.11.05Z" transform="translate(-148.1 -113.7)"/><path class="cls-43" d="M271.18,275.42s-.05.06-.11.06h0c-.06,0-.11,0-.11-.06v-3.59s.05-.05.11-.05h0c.06,0,.11,0,.11.05Z" transform="translate(-148.1 -113.7)"/><path class="cls-44" d="M270.09,275.42s0,.06-.11.06h0c-.05,0-.11,0-.11-.06v-3.59s.06-.05.11-.05h0c.06,0,.11,0,.11.05Z" transform="translate(-148.1 -113.7)"/><path class="cls-45" d="M278.15,275.42s0,.06-.11.06h0c-.06,0-.11,0-.11-.06v-3.59s.05-.05.11-.05h0c.06,0,.11,0,.11.05Z" transform="translate(-148.1 -113.7)"/><path class="cls-46" d="M284.53,275.42s0,.06-.11.06h0c-.06,0-.1,0-.1-.06v-3.59s0-.05.1-.05h0c.06,0,.11,0,.11.05Z" transform="translate(-148.1 -113.7)"/><path class="cls-47" d="M300.78,275.42s0,.06-.11.06h0c-.06,0-.11,0-.11-.06v-3.59s.05-.05.11-.05h0c.06,0,.11,0,.11.05Z" transform="translate(-148.1 -113.7)"/><path class="cls-48" d="M299.58,275.42s-.05.06-.11.06h0c-.06,0-.11,0-.11-.06v-3.59s.05-.05.11-.05h0c.06,0,.11,0,.11.05Z" transform="translate(-148.1 -113.7)"/><path class="cls-49" d="M298.06,275.42s-.05.06-.11.06h0c-.06,0-.11,0-.11-.06v-3.59s.05-.05.11-.05h0c.06,0,.11,0,.11.05Z" transform="translate(-148.1 -113.7)"/><path class="cls-1" d="M265.52,185.91l.62-2.28a5.22,5.22,0,0,0-3.69-6.4l-2.52-.68a5.22,5.22,0,0,0-6.4,3.69l-.61,2.28Z" transform="translate(-148.1 -113.7)"/><path class="cls-2" d="M265.23,185.56l.57-2.12a4.91,4.91,0,0,0-3.5-6l-2.38-.64a4.9,4.9,0,0,0-6,3.41l-.57,2.12Z" transform="translate(-148.1 -113.7)"/><path class="cls-1" d="M278.23,193.09l1.21-2a5.23,5.23,0,0,0-1.81-7.17l-2.24-1.34a5.22,5.22,0,0,0-7.16,1.81l-1.21,2Z" transform="translate(-148.1 -113.7)"/><path class="cls-2" d="M278,193l1.16-1.95a5,5,0,0,0-1.74-6.9l-2.15-1.29a5,5,0,0,0-6.89,1.74l-1.17,2Z" transform="translate(-148.1 -113.7)"/><path class="cls-1" d="M287.18,203.92l1.82-1.49a5.22,5.22,0,0,0,.75-7.35l-1.65-2a5.22,5.22,0,0,0-7.35-.75l-1.83,1.5Z" transform="translate(-148.1 -113.7)"/><path class="cls-2" d="M287,203.46l1.71-1.4a4.89,4.89,0,0,0,.69-6.9l-1.55-1.91a4.91,4.91,0,0,0-6.9-.71l-1.72,1.4Z" transform="translate(-148.1 -113.7)"/><path class="cls-1" d="M293.8,217,296,216a5.21,5.21,0,0,0,2.72-6.86l-1-2.4a5.22,5.22,0,0,0-6.87-2.72l-2.17.94Z" transform="translate(-148.1 -113.7)"/><path class="cls-2" d="M294.05,216.2l1.86-.81a4.59,4.59,0,0,0,2.25-6.08l-.93-2.16a4.59,4.59,0,0,0-6-2.52l-1.86.8Z" transform="translate(-148.1 -113.7)"/><path class="cls-1" d="M296.83,229.34a49.95,49.95,0,1,1-49.95-49.94A49.95,49.95,0,0,1,296.83,229.34Z" transform="translate(-148.1 -113.7)"/><path class="cls-1" d="M294.58,229.34a47.7,47.7,0,1,1-47.7-47.69A47.69,47.69,0,0,1,294.58,229.34Z" transform="translate(-148.1 -113.7)"/><path class="cls-2" d="M284.42,229.34a37.54,37.54,0,1,1-37.54-37.54A37.54,37.54,0,0,1,284.42,229.34Z" transform="translate(-148.1 -113.7)"/><path class="cls-2" d="M282.72,229.34a35.83,35.83,0,1,1-35.84-35.83A35.84,35.84,0,0,1,282.72,229.34Z" transform="translate(-148.1 -113.7)"/><path class="cls-50" d="M260.51,229.34a13.62,13.62,0,1,1-13.63-13.62A13.62,13.62,0,0,1,260.51,229.34Z" transform="translate(-148.1 -113.7)"/><path class="cls-51" d="M259.94,229.34a13.06,13.06,0,1,1-13.06-13.05A13.06,13.06,0,0,1,259.94,229.34Z" transform="translate(-148.1 -113.7)"/><path class="cls-52" d="M255,229.34a8.11,8.11,0,1,1-8.11-8.1A8.11,8.11,0,0,1,255,229.34Z" transform="translate(-148.1 -113.7)"/><path class="cls-1" d="M254.42,229.34a7.54,7.54,0,1,1-7.54-7.54A7.54,7.54,0,0,1,254.42,229.34Z" transform="translate(-148.1 -113.7)"/><text x="-148.1" y="-113.7"/></g></svg>